<mxfile host="Electron" modified="2023-12-08T13:57:14.260Z" agent="Mozilla/5.0 (Windows NT 10.0; Win64; x64) AppleWebKit/537.36 (KHTML, like Gecko) draw.io/22.0.3 Chrome/114.0.5735.289 Electron/25.8.4 Safari/537.36" etag="E1kTV1rX9reVdJgg3Bck" version="22.0.3" type="device">
  <diagram name="Page-1" id="0RC-_UWyzEGNi50Nm_HR">
    <mxGraphModel dx="880" dy="423" grid="1" gridSize="10" guides="1" tooltips="1" connect="1" arrows="1" fold="1" page="1" pageScale="1" pageWidth="5000" pageHeight="5000" math="0" shadow="0">
      <root>
        <mxCell id="0" />
        <mxCell id="1" parent="0" />
        <mxCell id="bpEk5SvSNglR7MOFI6FV-10" value="" style="shape=table;startSize=0;container=1;collapsible=0;childLayout=tableLayout;" vertex="1" parent="1">
          <mxGeometry x="320" y="200" width="240" height="40" as="geometry" />
        </mxCell>
        <mxCell id="bpEk5SvSNglR7MOFI6FV-11" value="" style="shape=tableRow;horizontal=0;startSize=0;swimlaneHead=0;swimlaneBody=0;strokeColor=inherit;top=0;left=0;bottom=0;right=0;collapsible=0;dropTarget=0;fillColor=none;points=[[0,0.5],[1,0.5]];portConstraint=eastwest;" vertex="1" parent="bpEk5SvSNglR7MOFI6FV-10">
          <mxGeometry width="240" height="40" as="geometry" />
        </mxCell>
        <mxCell id="bpEk5SvSNglR7MOFI6FV-12" value="&lt;u&gt;user_id&lt;/u&gt;" style="shape=partialRectangle;html=1;whiteSpace=wrap;connectable=0;strokeColor=inherit;overflow=hidden;fillColor=none;top=0;left=0;bottom=0;right=0;pointerEvents=1;" vertex="1" parent="bpEk5SvSNglR7MOFI6FV-11">
          <mxGeometry width="60" height="40" as="geometry">
            <mxRectangle width="60" height="40" as="alternateBounds" />
          </mxGeometry>
        </mxCell>
        <mxCell id="bpEk5SvSNglR7MOFI6FV-13" value="email" style="shape=partialRectangle;html=1;whiteSpace=wrap;connectable=0;strokeColor=inherit;overflow=hidden;fillColor=none;top=0;left=0;bottom=0;right=0;pointerEvents=1;" vertex="1" parent="bpEk5SvSNglR7MOFI6FV-11">
          <mxGeometry x="60" width="60" height="40" as="geometry">
            <mxRectangle width="60" height="40" as="alternateBounds" />
          </mxGeometry>
        </mxCell>
        <mxCell id="bpEk5SvSNglR7MOFI6FV-14" value="password" style="shape=partialRectangle;html=1;whiteSpace=wrap;connectable=0;strokeColor=inherit;overflow=hidden;fillColor=none;top=0;left=0;bottom=0;right=0;pointerEvents=1;" vertex="1" parent="bpEk5SvSNglR7MOFI6FV-11">
          <mxGeometry x="120" width="60" height="40" as="geometry">
            <mxRectangle width="60" height="40" as="alternateBounds" />
          </mxGeometry>
        </mxCell>
        <mxCell id="bpEk5SvSNglR7MOFI6FV-15" value="address" style="shape=partialRectangle;html=1;whiteSpace=wrap;connectable=0;strokeColor=inherit;overflow=hidden;fillColor=none;top=0;left=0;bottom=0;right=0;pointerEvents=1;" vertex="1" parent="bpEk5SvSNglR7MOFI6FV-11">
          <mxGeometry x="180" width="60" height="40" as="geometry">
            <mxRectangle width="60" height="40" as="alternateBounds" />
          </mxGeometry>
        </mxCell>
        <mxCell id="bpEk5SvSNglR7MOFI6FV-17" value="user" style="text;html=1;align=center;verticalAlign=middle;resizable=0;points=[];autosize=1;strokeColor=none;fillColor=none;" vertex="1" parent="1">
          <mxGeometry x="320" y="160" width="50" height="30" as="geometry" />
        </mxCell>
        <mxCell id="bpEk5SvSNglR7MOFI6FV-19" value="" style="shape=table;startSize=0;container=1;collapsible=0;childLayout=tableLayout;" vertex="1" parent="1">
          <mxGeometry x="320" y="360" width="240" height="40" as="geometry" />
        </mxCell>
        <mxCell id="bpEk5SvSNglR7MOFI6FV-20" value="" style="shape=tableRow;horizontal=0;startSize=0;swimlaneHead=0;swimlaneBody=0;strokeColor=inherit;top=0;left=0;bottom=0;right=0;collapsible=0;dropTarget=0;fillColor=none;points=[[0,0.5],[1,0.5]];portConstraint=eastwest;" vertex="1" parent="bpEk5SvSNglR7MOFI6FV-19">
          <mxGeometry width="240" height="40" as="geometry" />
        </mxCell>
        <mxCell id="bpEk5SvSNglR7MOFI6FV-21" value="&lt;u&gt;name_id&lt;/u&gt;" style="shape=partialRectangle;html=1;whiteSpace=wrap;connectable=0;strokeColor=inherit;overflow=hidden;fillColor=none;top=0;left=0;bottom=0;right=0;pointerEvents=1;" vertex="1" parent="bpEk5SvSNglR7MOFI6FV-20">
          <mxGeometry width="60" height="40" as="geometry">
            <mxRectangle width="60" height="40" as="alternateBounds" />
          </mxGeometry>
        </mxCell>
        <mxCell id="bpEk5SvSNglR7MOFI6FV-22" value="first_name" style="shape=partialRectangle;html=1;whiteSpace=wrap;connectable=0;strokeColor=inherit;overflow=hidden;fillColor=none;top=0;left=0;bottom=0;right=0;pointerEvents=1;" vertex="1" parent="bpEk5SvSNglR7MOFI6FV-20">
          <mxGeometry x="60" width="60" height="40" as="geometry">
            <mxRectangle width="60" height="40" as="alternateBounds" />
          </mxGeometry>
        </mxCell>
        <mxCell id="bpEk5SvSNglR7MOFI6FV-23" value="last_name" style="shape=partialRectangle;html=1;whiteSpace=wrap;connectable=0;strokeColor=inherit;overflow=hidden;fillColor=none;top=0;left=0;bottom=0;right=0;pointerEvents=1;" vertex="1" parent="bpEk5SvSNglR7MOFI6FV-20">
          <mxGeometry x="120" width="60" height="40" as="geometry">
            <mxRectangle width="60" height="40" as="alternateBounds" />
          </mxGeometry>
        </mxCell>
        <mxCell id="bpEk5SvSNglR7MOFI6FV-24" value="user_id" style="shape=partialRectangle;html=1;whiteSpace=wrap;connectable=0;strokeColor=inherit;overflow=hidden;fillColor=none;top=0;left=0;bottom=0;right=0;pointerEvents=1;" vertex="1" parent="bpEk5SvSNglR7MOFI6FV-20">
          <mxGeometry x="180" width="60" height="40" as="geometry">
            <mxRectangle width="60" height="40" as="alternateBounds" />
          </mxGeometry>
        </mxCell>
        <mxCell id="bpEk5SvSNglR7MOFI6FV-25" value="" style="endArrow=classic;html=1;rounded=0;edgeStyle=orthogonalEdgeStyle;exitX=0.874;exitY=-0.02;exitDx=0;exitDy=0;exitPerimeter=0;" edge="1" parent="1" source="bpEk5SvSNglR7MOFI6FV-20" target="bpEk5SvSNglR7MOFI6FV-11">
          <mxGeometry width="50" height="50" relative="1" as="geometry">
            <mxPoint x="530" y="300" as="sourcePoint" />
            <mxPoint x="326.48" y="240.00000000000006" as="targetPoint" />
            <Array as="points">
              <mxPoint x="530" y="320" />
              <mxPoint x="300" y="320" />
              <mxPoint x="300" y="220" />
            </Array>
          </mxGeometry>
        </mxCell>
        <mxCell id="bpEk5SvSNglR7MOFI6FV-26" value="name" style="text;html=1;align=center;verticalAlign=middle;resizable=0;points=[];autosize=1;strokeColor=none;fillColor=none;" vertex="1" parent="1">
          <mxGeometry x="320" y="320" width="50" height="30" as="geometry" />
        </mxCell>
        <mxCell id="bpEk5SvSNglR7MOFI6FV-27" value="" style="shape=table;startSize=0;container=1;collapsible=0;childLayout=tableLayout;" vertex="1" parent="1">
          <mxGeometry x="320" y="480" width="240" height="40" as="geometry" />
        </mxCell>
        <mxCell id="bpEk5SvSNglR7MOFI6FV-28" value="" style="shape=tableRow;horizontal=0;startSize=0;swimlaneHead=0;swimlaneBody=0;strokeColor=inherit;top=0;left=0;bottom=0;right=0;collapsible=0;dropTarget=0;fillColor=none;points=[[0,0.5],[1,0.5]];portConstraint=eastwest;" vertex="1" parent="bpEk5SvSNglR7MOFI6FV-27">
          <mxGeometry width="240" height="40" as="geometry" />
        </mxCell>
        <mxCell id="bpEk5SvSNglR7MOFI6FV-29" value="&lt;u&gt;phone_id&lt;/u&gt;" style="shape=partialRectangle;html=1;whiteSpace=wrap;connectable=0;strokeColor=inherit;overflow=hidden;fillColor=none;top=0;left=0;bottom=0;right=0;pointerEvents=1;" vertex="1" parent="bpEk5SvSNglR7MOFI6FV-28">
          <mxGeometry width="60" height="40" as="geometry">
            <mxRectangle width="60" height="40" as="alternateBounds" />
          </mxGeometry>
        </mxCell>
        <mxCell id="bpEk5SvSNglR7MOFI6FV-30" value="phone_number" style="shape=partialRectangle;html=1;whiteSpace=wrap;connectable=0;strokeColor=inherit;overflow=hidden;fillColor=none;top=0;left=0;bottom=0;right=0;pointerEvents=1;" vertex="1" parent="bpEk5SvSNglR7MOFI6FV-28">
          <mxGeometry x="60" width="120" height="40" as="geometry">
            <mxRectangle width="120" height="40" as="alternateBounds" />
          </mxGeometry>
        </mxCell>
        <mxCell id="bpEk5SvSNglR7MOFI6FV-31" value="user_id" style="shape=partialRectangle;html=1;whiteSpace=wrap;connectable=0;strokeColor=inherit;overflow=hidden;fillColor=none;top=0;left=0;bottom=0;right=0;pointerEvents=1;" vertex="1" parent="bpEk5SvSNglR7MOFI6FV-28">
          <mxGeometry x="180" width="60" height="40" as="geometry">
            <mxRectangle width="60" height="40" as="alternateBounds" />
          </mxGeometry>
        </mxCell>
        <mxCell id="bpEk5SvSNglR7MOFI6FV-33" value="" style="endArrow=classic;html=1;rounded=0;edgeStyle=orthogonalEdgeStyle;exitX=0.917;exitY=0;exitDx=0;exitDy=0;exitPerimeter=0;" edge="1" parent="1" source="bpEk5SvSNglR7MOFI6FV-28" target="bpEk5SvSNglR7MOFI6FV-11">
          <mxGeometry width="50" height="50" relative="1" as="geometry">
            <mxPoint x="530" y="410" as="sourcePoint" />
            <mxPoint x="640" y="370" as="targetPoint" />
            <Array as="points">
              <mxPoint x="540" y="440" />
              <mxPoint x="570" y="440" />
              <mxPoint x="570" y="310" />
              <mxPoint x="310" y="310" />
              <mxPoint x="310" y="230" />
            </Array>
          </mxGeometry>
        </mxCell>
        <mxCell id="bpEk5SvSNglR7MOFI6FV-34" value="phone" style="text;html=1;align=center;verticalAlign=middle;resizable=0;points=[];autosize=1;strokeColor=none;fillColor=none;" vertex="1" parent="1">
          <mxGeometry x="320" y="440" width="60" height="30" as="geometry" />
        </mxCell>
        <mxCell id="bpEk5SvSNglR7MOFI6FV-35" value="" style="shape=table;startSize=0;container=1;collapsible=0;childLayout=tableLayout;" vertex="1" parent="1">
          <mxGeometry x="320" y="600" width="180" height="40" as="geometry" />
        </mxCell>
        <mxCell id="bpEk5SvSNglR7MOFI6FV-36" value="" style="shape=tableRow;horizontal=0;startSize=0;swimlaneHead=0;swimlaneBody=0;strokeColor=inherit;top=0;left=0;bottom=0;right=0;collapsible=0;dropTarget=0;fillColor=none;points=[[0,0.5],[1,0.5]];portConstraint=eastwest;" vertex="1" parent="bpEk5SvSNglR7MOFI6FV-35">
          <mxGeometry width="180" height="40" as="geometry" />
        </mxCell>
        <mxCell id="bpEk5SvSNglR7MOFI6FV-37" value="&lt;u&gt;auth_id&lt;/u&gt;" style="shape=partialRectangle;html=1;whiteSpace=wrap;connectable=0;strokeColor=inherit;overflow=hidden;fillColor=none;top=0;left=0;bottom=0;right=0;pointerEvents=1;" vertex="1" parent="bpEk5SvSNglR7MOFI6FV-36">
          <mxGeometry width="60" height="40" as="geometry">
            <mxRectangle width="60" height="40" as="alternateBounds" />
          </mxGeometry>
        </mxCell>
        <mxCell id="bpEk5SvSNglR7MOFI6FV-38" value="type" style="shape=partialRectangle;html=1;whiteSpace=wrap;connectable=0;strokeColor=inherit;overflow=hidden;fillColor=none;top=0;left=0;bottom=0;right=0;pointerEvents=1;" vertex="1" parent="bpEk5SvSNglR7MOFI6FV-36">
          <mxGeometry x="60" width="60" height="40" as="geometry">
            <mxRectangle width="60" height="40" as="alternateBounds" />
          </mxGeometry>
        </mxCell>
        <mxCell id="bpEk5SvSNglR7MOFI6FV-39" value="user_id" style="shape=partialRectangle;html=1;whiteSpace=wrap;connectable=0;strokeColor=inherit;overflow=hidden;fillColor=none;top=0;left=0;bottom=0;right=0;pointerEvents=1;" vertex="1" parent="bpEk5SvSNglR7MOFI6FV-36">
          <mxGeometry x="120" width="60" height="40" as="geometry">
            <mxRectangle width="60" height="40" as="alternateBounds" />
          </mxGeometry>
        </mxCell>
        <mxCell id="bpEk5SvSNglR7MOFI6FV-40" value="" style="endArrow=classic;html=1;rounded=0;exitX=0.833;exitY=0;exitDx=0;exitDy=0;exitPerimeter=0;edgeStyle=orthogonalEdgeStyle;" edge="1" parent="1" source="bpEk5SvSNglR7MOFI6FV-36" target="bpEk5SvSNglR7MOFI6FV-11">
          <mxGeometry width="50" height="50" relative="1" as="geometry">
            <mxPoint x="590" y="490" as="sourcePoint" />
            <mxPoint x="640" y="440" as="targetPoint" />
            <Array as="points">
              <mxPoint x="470" y="560" />
              <mxPoint x="600" y="560" />
              <mxPoint x="600" y="300" />
              <mxPoint x="320" y="300" />
            </Array>
          </mxGeometry>
        </mxCell>
        <mxCell id="bpEk5SvSNglR7MOFI6FV-41" value="auth" style="text;html=1;align=center;verticalAlign=middle;resizable=0;points=[];autosize=1;strokeColor=none;fillColor=none;" vertex="1" parent="1">
          <mxGeometry x="320" y="560" width="50" height="30" as="geometry" />
        </mxCell>
        <mxCell id="bpEk5SvSNglR7MOFI6FV-42" value="" style="shape=table;startSize=0;container=1;collapsible=0;childLayout=tableLayout;" vertex="1" parent="1">
          <mxGeometry x="320" y="720" width="360" height="40" as="geometry" />
        </mxCell>
        <mxCell id="bpEk5SvSNglR7MOFI6FV-43" value="" style="shape=tableRow;horizontal=0;startSize=0;swimlaneHead=0;swimlaneBody=0;strokeColor=inherit;top=0;left=0;bottom=0;right=0;collapsible=0;dropTarget=0;fillColor=none;points=[[0,0.5],[1,0.5]];portConstraint=eastwest;" vertex="1" parent="bpEk5SvSNglR7MOFI6FV-42">
          <mxGeometry width="360" height="40" as="geometry" />
        </mxCell>
        <mxCell id="bpEk5SvSNglR7MOFI6FV-44" value="&lt;u&gt;driver_id&lt;/u&gt;" style="shape=partialRectangle;html=1;whiteSpace=wrap;connectable=0;strokeColor=inherit;overflow=hidden;fillColor=none;top=0;left=0;bottom=0;right=0;pointerEvents=1;" vertex="1" parent="bpEk5SvSNglR7MOFI6FV-43">
          <mxGeometry width="60" height="40" as="geometry">
            <mxRectangle width="60" height="40" as="alternateBounds" />
          </mxGeometry>
        </mxCell>
        <mxCell id="bpEk5SvSNglR7MOFI6FV-45" value="driver_license_no" style="shape=partialRectangle;html=1;whiteSpace=wrap;connectable=0;strokeColor=inherit;overflow=hidden;fillColor=none;top=0;left=0;bottom=0;right=0;pointerEvents=1;" vertex="1" parent="bpEk5SvSNglR7MOFI6FV-43">
          <mxGeometry x="60" width="100" height="40" as="geometry">
            <mxRectangle width="100" height="40" as="alternateBounds" />
          </mxGeometry>
        </mxCell>
        <mxCell id="bpEk5SvSNglR7MOFI6FV-46" value="driver_license_exp" style="shape=partialRectangle;html=1;whiteSpace=wrap;connectable=0;strokeColor=inherit;overflow=hidden;fillColor=none;top=0;left=0;bottom=0;right=0;pointerEvents=1;" vertex="1" parent="bpEk5SvSNglR7MOFI6FV-43">
          <mxGeometry x="160" width="120" height="40" as="geometry">
            <mxRectangle width="120" height="40" as="alternateBounds" />
          </mxGeometry>
        </mxCell>
        <mxCell id="bpEk5SvSNglR7MOFI6FV-47" value="user_id" style="shape=partialRectangle;html=1;whiteSpace=wrap;connectable=0;strokeColor=inherit;overflow=hidden;fillColor=none;top=0;left=0;bottom=0;right=0;pointerEvents=1;" vertex="1" parent="bpEk5SvSNglR7MOFI6FV-43">
          <mxGeometry x="280" width="80" height="40" as="geometry">
            <mxRectangle width="80" height="40" as="alternateBounds" />
          </mxGeometry>
        </mxCell>
        <mxCell id="bpEk5SvSNglR7MOFI6FV-48" value="driver" style="text;html=1;align=center;verticalAlign=middle;resizable=0;points=[];autosize=1;strokeColor=none;fillColor=none;" vertex="1" parent="1">
          <mxGeometry x="320" y="680" width="50" height="30" as="geometry" />
        </mxCell>
        <mxCell id="bpEk5SvSNglR7MOFI6FV-49" value="" style="endArrow=classic;html=1;rounded=0;exitX=0.889;exitY=0;exitDx=0;exitDy=0;exitPerimeter=0;edgeStyle=orthogonalEdgeStyle;" edge="1" parent="1" target="bpEk5SvSNglR7MOFI6FV-11">
          <mxGeometry width="50" height="50" relative="1" as="geometry">
            <mxPoint x="630.02" y="720" as="sourcePoint" />
            <mxPoint x="329.98" y="240" as="targetPoint" />
            <Array as="points">
              <mxPoint x="630" y="290" />
              <mxPoint x="330" y="290" />
            </Array>
          </mxGeometry>
        </mxCell>
        <mxCell id="bpEk5SvSNglR7MOFI6FV-62" value="bus" style="text;html=1;align=center;verticalAlign=middle;resizable=0;points=[];autosize=1;strokeColor=none;fillColor=none;" vertex="1" parent="1">
          <mxGeometry x="320" y="800" width="40" height="30" as="geometry" />
        </mxCell>
        <mxCell id="bpEk5SvSNglR7MOFI6FV-63" value="" style="shape=table;startSize=0;container=1;collapsible=0;childLayout=tableLayout;" vertex="1" parent="1">
          <mxGeometry x="320" y="960" width="120" height="40" as="geometry" />
        </mxCell>
        <mxCell id="bpEk5SvSNglR7MOFI6FV-64" value="" style="shape=tableRow;horizontal=0;startSize=0;swimlaneHead=0;swimlaneBody=0;strokeColor=inherit;top=0;left=0;bottom=0;right=0;collapsible=0;dropTarget=0;fillColor=none;points=[[0,0.5],[1,0.5]];portConstraint=eastwest;" vertex="1" parent="bpEk5SvSNglR7MOFI6FV-63">
          <mxGeometry width="120" height="40" as="geometry" />
        </mxCell>
        <mxCell id="bpEk5SvSNglR7MOFI6FV-65" value="&lt;u&gt;dist_id&lt;/u&gt;" style="shape=partialRectangle;html=1;whiteSpace=wrap;connectable=0;strokeColor=inherit;overflow=hidden;fillColor=none;top=0;left=0;bottom=0;right=0;pointerEvents=1;" vertex="1" parent="bpEk5SvSNglR7MOFI6FV-64">
          <mxGeometry width="60" height="40" as="geometry">
            <mxRectangle width="60" height="40" as="alternateBounds" />
          </mxGeometry>
        </mxCell>
        <mxCell id="bpEk5SvSNglR7MOFI6FV-66" value="dist_name" style="shape=partialRectangle;html=1;whiteSpace=wrap;connectable=0;strokeColor=inherit;overflow=hidden;fillColor=none;top=0;left=0;bottom=0;right=0;pointerEvents=1;" vertex="1" parent="bpEk5SvSNglR7MOFI6FV-64">
          <mxGeometry x="60" width="60" height="40" as="geometry">
            <mxRectangle width="60" height="40" as="alternateBounds" />
          </mxGeometry>
        </mxCell>
        <mxCell id="bpEk5SvSNglR7MOFI6FV-67" value="district" style="text;html=1;align=center;verticalAlign=middle;resizable=0;points=[];autosize=1;strokeColor=none;fillColor=none;" vertex="1" parent="1">
          <mxGeometry x="320" y="920" width="60" height="30" as="geometry" />
        </mxCell>
        <mxCell id="bpEk5SvSNglR7MOFI6FV-68" value="" style="shape=table;startSize=0;container=1;collapsible=0;childLayout=tableLayout;" vertex="1" parent="1">
          <mxGeometry x="320" y="1080" width="60" height="40" as="geometry" />
        </mxCell>
        <mxCell id="bpEk5SvSNglR7MOFI6FV-69" value="" style="shape=tableRow;horizontal=0;startSize=0;swimlaneHead=0;swimlaneBody=0;strokeColor=inherit;top=0;left=0;bottom=0;right=0;collapsible=0;dropTarget=0;fillColor=none;points=[[0,0.5],[1,0.5]];portConstraint=eastwest;" vertex="1" parent="bpEk5SvSNglR7MOFI6FV-68">
          <mxGeometry width="60" height="40" as="geometry" />
        </mxCell>
        <mxCell id="bpEk5SvSNglR7MOFI6FV-70" value="&lt;u&gt;route_id&lt;/u&gt;" style="shape=partialRectangle;html=1;whiteSpace=wrap;connectable=0;strokeColor=inherit;overflow=hidden;fillColor=none;top=0;left=0;bottom=0;right=0;pointerEvents=1;" vertex="1" parent="bpEk5SvSNglR7MOFI6FV-69">
          <mxGeometry width="60" height="40" as="geometry">
            <mxRectangle width="60" height="40" as="alternateBounds" />
          </mxGeometry>
        </mxCell>
        <mxCell id="bpEk5SvSNglR7MOFI6FV-71" value="route" style="text;html=1;align=center;verticalAlign=middle;resizable=0;points=[];autosize=1;strokeColor=none;fillColor=none;" vertex="1" parent="1">
          <mxGeometry x="320" y="1040" width="50" height="30" as="geometry" />
        </mxCell>
        <mxCell id="bpEk5SvSNglR7MOFI6FV-72" value="" style="shape=table;startSize=0;container=1;collapsible=0;childLayout=tableLayout;" vertex="1" parent="1">
          <mxGeometry x="320" y="1200" width="320" height="40" as="geometry" />
        </mxCell>
        <mxCell id="bpEk5SvSNglR7MOFI6FV-73" value="" style="shape=tableRow;horizontal=0;startSize=0;swimlaneHead=0;swimlaneBody=0;strokeColor=inherit;top=0;left=0;bottom=0;right=0;collapsible=0;dropTarget=0;fillColor=none;points=[[0,0.5],[1,0.5]];portConstraint=eastwest;" vertex="1" parent="bpEk5SvSNglR7MOFI6FV-72">
          <mxGeometry width="320" height="40" as="geometry" />
        </mxCell>
        <mxCell id="bpEk5SvSNglR7MOFI6FV-74" value="&lt;u&gt;route_district_id&lt;/u&gt;" style="shape=partialRectangle;html=1;whiteSpace=wrap;connectable=0;strokeColor=inherit;overflow=hidden;fillColor=none;top=0;left=0;bottom=0;right=0;pointerEvents=1;" vertex="1" parent="bpEk5SvSNglR7MOFI6FV-73">
          <mxGeometry width="100" height="40" as="geometry">
            <mxRectangle width="100" height="40" as="alternateBounds" />
          </mxGeometry>
        </mxCell>
        <mxCell id="bpEk5SvSNglR7MOFI6FV-75" value="dist_order" style="shape=partialRectangle;html=1;whiteSpace=wrap;connectable=0;strokeColor=inherit;overflow=hidden;fillColor=none;top=0;left=0;bottom=0;right=0;pointerEvents=1;" vertex="1" parent="bpEk5SvSNglR7MOFI6FV-73">
          <mxGeometry x="100" width="60" height="40" as="geometry">
            <mxRectangle width="60" height="40" as="alternateBounds" />
          </mxGeometry>
        </mxCell>
        <mxCell id="bpEk5SvSNglR7MOFI6FV-76" value="route_id" style="shape=partialRectangle;html=1;whiteSpace=wrap;connectable=0;strokeColor=inherit;overflow=hidden;fillColor=none;top=0;left=0;bottom=0;right=0;pointerEvents=1;" vertex="1" parent="bpEk5SvSNglR7MOFI6FV-73">
          <mxGeometry x="160" width="80" height="40" as="geometry">
            <mxRectangle width="80" height="40" as="alternateBounds" />
          </mxGeometry>
        </mxCell>
        <mxCell id="bpEk5SvSNglR7MOFI6FV-77" value="dist_id" style="shape=partialRectangle;html=1;whiteSpace=wrap;connectable=0;strokeColor=inherit;overflow=hidden;fillColor=none;top=0;left=0;bottom=0;right=0;pointerEvents=1;" vertex="1" parent="bpEk5SvSNglR7MOFI6FV-73">
          <mxGeometry x="240" width="80" height="40" as="geometry">
            <mxRectangle width="80" height="40" as="alternateBounds" />
          </mxGeometry>
        </mxCell>
        <mxCell id="bpEk5SvSNglR7MOFI6FV-78" value="route_district" style="text;html=1;align=center;verticalAlign=middle;resizable=0;points=[];autosize=1;strokeColor=none;fillColor=none;" vertex="1" parent="1">
          <mxGeometry x="320" y="1160" width="90" height="30" as="geometry" />
        </mxCell>
        <mxCell id="bpEk5SvSNglR7MOFI6FV-79" value="" style="endArrow=classic;html=1;rounded=0;entryX=0.497;entryY=1.015;entryDx=0;entryDy=0;entryPerimeter=0;edgeStyle=orthogonalEdgeStyle;exitX=0.626;exitY=-0.027;exitDx=0;exitDy=0;exitPerimeter=0;" edge="1" parent="1" source="bpEk5SvSNglR7MOFI6FV-73" target="bpEk5SvSNglR7MOFI6FV-69">
          <mxGeometry width="50" height="50" relative="1" as="geometry">
            <mxPoint x="590" y="1110" as="sourcePoint" />
            <mxPoint x="640" y="1060" as="targetPoint" />
            <Array as="points">
              <mxPoint x="520" y="1160" />
              <mxPoint x="350" y="1160" />
            </Array>
          </mxGeometry>
        </mxCell>
        <mxCell id="bpEk5SvSNglR7MOFI6FV-80" value="" style="endArrow=classic;html=1;rounded=0;edgeStyle=orthogonalEdgeStyle;entryX=0.083;entryY=0.994;entryDx=0;entryDy=0;entryPerimeter=0;exitX=0.876;exitY=0.022;exitDx=0;exitDy=0;exitPerimeter=0;" edge="1" parent="1" source="bpEk5SvSNglR7MOFI6FV-73" target="bpEk5SvSNglR7MOFI6FV-64">
          <mxGeometry width="50" height="50" relative="1" as="geometry">
            <mxPoint x="600" y="1160" as="sourcePoint" />
            <mxPoint x="640" y="1060" as="targetPoint" />
            <Array as="points">
              <mxPoint x="600" y="1040" />
              <mxPoint x="330" y="1040" />
            </Array>
          </mxGeometry>
        </mxCell>
        <mxCell id="bpEk5SvSNglR7MOFI6FV-81" value="" style="shape=table;startSize=0;container=1;collapsible=0;childLayout=tableLayout;" vertex="1" parent="1">
          <mxGeometry x="320" y="1320" width="440" height="40" as="geometry" />
        </mxCell>
        <mxCell id="bpEk5SvSNglR7MOFI6FV-82" value="" style="shape=tableRow;horizontal=0;startSize=0;swimlaneHead=0;swimlaneBody=0;strokeColor=inherit;top=0;left=0;bottom=0;right=0;collapsible=0;dropTarget=0;fillColor=none;points=[[0,0.5],[1,0.5]];portConstraint=eastwest;" vertex="1" parent="bpEk5SvSNglR7MOFI6FV-81">
          <mxGeometry width="440" height="40" as="geometry" />
        </mxCell>
        <mxCell id="bpEk5SvSNglR7MOFI6FV-83" value="schedule_id" style="shape=partialRectangle;html=1;whiteSpace=wrap;connectable=0;strokeColor=inherit;overflow=hidden;fillColor=none;top=0;left=0;bottom=0;right=0;pointerEvents=1;" vertex="1" parent="bpEk5SvSNglR7MOFI6FV-82">
          <mxGeometry width="80" height="40" as="geometry">
            <mxRectangle width="80" height="40" as="alternateBounds" />
          </mxGeometry>
        </mxCell>
        <mxCell id="bpEk5SvSNglR7MOFI6FV-84" value="departure_time" style="shape=partialRectangle;html=1;whiteSpace=wrap;connectable=0;strokeColor=inherit;overflow=hidden;fillColor=none;top=0;left=0;bottom=0;right=0;pointerEvents=1;" vertex="1" parent="bpEk5SvSNglR7MOFI6FV-82">
          <mxGeometry x="80" width="100" height="40" as="geometry">
            <mxRectangle width="100" height="40" as="alternateBounds" />
          </mxGeometry>
        </mxCell>
        <mxCell id="bpEk5SvSNglR7MOFI6FV-85" value="arrival_time" style="shape=partialRectangle;html=1;whiteSpace=wrap;connectable=0;strokeColor=inherit;overflow=hidden;fillColor=none;top=0;left=0;bottom=0;right=0;pointerEvents=1;" vertex="1" parent="bpEk5SvSNglR7MOFI6FV-82">
          <mxGeometry x="180" width="80" height="40" as="geometry">
            <mxRectangle width="80" height="40" as="alternateBounds" />
          </mxGeometry>
        </mxCell>
        <mxCell id="bpEk5SvSNglR7MOFI6FV-86" value="route_id" style="shape=partialRectangle;html=1;whiteSpace=wrap;connectable=0;strokeColor=inherit;overflow=hidden;fillColor=none;top=0;left=0;bottom=0;right=0;pointerEvents=1;" vertex="1" parent="bpEk5SvSNglR7MOFI6FV-82">
          <mxGeometry x="260" width="60" height="40" as="geometry">
            <mxRectangle width="60" height="40" as="alternateBounds" />
          </mxGeometry>
        </mxCell>
        <mxCell id="bpEk5SvSNglR7MOFI6FV-87" value="bus_id" style="shape=partialRectangle;html=1;whiteSpace=wrap;connectable=0;strokeColor=inherit;overflow=hidden;fillColor=none;top=0;left=0;bottom=0;right=0;pointerEvents=1;" vertex="1" parent="bpEk5SvSNglR7MOFI6FV-82">
          <mxGeometry x="320" width="60" height="40" as="geometry">
            <mxRectangle width="60" height="40" as="alternateBounds" />
          </mxGeometry>
        </mxCell>
        <mxCell id="bpEk5SvSNglR7MOFI6FV-88" value="driver_id" style="shape=partialRectangle;html=1;whiteSpace=wrap;connectable=0;strokeColor=inherit;overflow=hidden;fillColor=none;top=0;left=0;bottom=0;right=0;pointerEvents=1;" vertex="1" parent="bpEk5SvSNglR7MOFI6FV-82">
          <mxGeometry x="380" width="60" height="40" as="geometry">
            <mxRectangle width="60" height="40" as="alternateBounds" />
          </mxGeometry>
        </mxCell>
        <mxCell id="bpEk5SvSNglR7MOFI6FV-89" value="bus_schedule" style="text;html=1;align=center;verticalAlign=middle;resizable=0;points=[];autosize=1;strokeColor=none;fillColor=none;" vertex="1" parent="1">
          <mxGeometry x="320" y="1280" width="100" height="30" as="geometry" />
        </mxCell>
        <mxCell id="bpEk5SvSNglR7MOFI6FV-90" value="" style="endArrow=classic;html=1;rounded=0;entryX=0;entryY=0.5;entryDx=0;entryDy=0;edgeStyle=orthogonalEdgeStyle;exitX=0.657;exitY=0;exitDx=0;exitDy=0;exitPerimeter=0;" edge="1" parent="1" source="bpEk5SvSNglR7MOFI6FV-82" target="bpEk5SvSNglR7MOFI6FV-69">
          <mxGeometry width="50" height="50" relative="1" as="geometry">
            <mxPoint x="609" y="1279" as="sourcePoint" />
            <mxPoint x="640" y="1060" as="targetPoint" />
            <Array as="points">
              <mxPoint x="609" y="1280" />
              <mxPoint x="300" y="1280" />
              <mxPoint x="300" y="1100" />
            </Array>
          </mxGeometry>
        </mxCell>
        <mxCell id="bpEk5SvSNglR7MOFI6FV-91" value="" style="endArrow=classic;html=1;rounded=0;exitX=0.792;exitY=-0.02;exitDx=0;exitDy=0;exitPerimeter=0;entryX=0.097;entryY=1.001;entryDx=0;entryDy=0;entryPerimeter=0;edgeStyle=orthogonalEdgeStyle;" edge="1" parent="1" source="bpEk5SvSNglR7MOFI6FV-82" target="bpEk5SvSNglR7MOFI6FV-57">
          <mxGeometry width="50" height="50" relative="1" as="geometry">
            <mxPoint x="590" y="1110" as="sourcePoint" />
            <mxPoint x="640" y="1060" as="targetPoint" />
            <Array as="points">
              <mxPoint x="668" y="920" />
              <mxPoint x="347" y="920" />
            </Array>
          </mxGeometry>
        </mxCell>
        <mxCell id="bpEk5SvSNglR7MOFI6FV-92" value="" style="endArrow=classic;html=1;rounded=0;edgeStyle=orthogonalEdgeStyle;exitX=0.937;exitY=-0.034;exitDx=0;exitDy=0;exitPerimeter=0;" edge="1" parent="1" source="bpEk5SvSNglR7MOFI6FV-82" target="bpEk5SvSNglR7MOFI6FV-43">
          <mxGeometry width="50" height="50" relative="1" as="geometry">
            <mxPoint x="760" y="830" as="sourcePoint" />
            <mxPoint x="640" y="780" as="targetPoint" />
            <Array as="points">
              <mxPoint x="732" y="800" />
              <mxPoint x="340" y="800" />
            </Array>
          </mxGeometry>
        </mxCell>
        <mxCell id="bpEk5SvSNglR7MOFI6FV-93" value="" style="shape=table;startSize=0;container=1;collapsible=0;childLayout=tableLayout;" vertex="1" parent="1">
          <mxGeometry x="320" y="1440" width="360" height="40" as="geometry" />
        </mxCell>
        <mxCell id="bpEk5SvSNglR7MOFI6FV-94" value="" style="shape=tableRow;horizontal=0;startSize=0;swimlaneHead=0;swimlaneBody=0;strokeColor=inherit;top=0;left=0;bottom=0;right=0;collapsible=0;dropTarget=0;fillColor=none;points=[[0,0.5],[1,0.5]];portConstraint=eastwest;" vertex="1" parent="bpEk5SvSNglR7MOFI6FV-93">
          <mxGeometry width="360" height="40" as="geometry" />
        </mxCell>
        <mxCell id="bpEk5SvSNglR7MOFI6FV-95" value="&lt;u&gt;ticket_id&lt;/u&gt;" style="shape=partialRectangle;html=1;whiteSpace=wrap;connectable=0;strokeColor=inherit;overflow=hidden;fillColor=none;top=0;left=0;bottom=0;right=0;pointerEvents=1;" vertex="1" parent="bpEk5SvSNglR7MOFI6FV-94">
          <mxGeometry width="60" height="40" as="geometry">
            <mxRectangle width="60" height="40" as="alternateBounds" />
          </mxGeometry>
        </mxCell>
        <mxCell id="bpEk5SvSNglR7MOFI6FV-96" value="purchase_date" style="shape=partialRectangle;html=1;whiteSpace=wrap;connectable=0;strokeColor=inherit;overflow=hidden;fillColor=none;top=0;left=0;bottom=0;right=0;pointerEvents=1;" vertex="1" parent="bpEk5SvSNglR7MOFI6FV-94">
          <mxGeometry x="60" width="100" height="40" as="geometry">
            <mxRectangle width="100" height="40" as="alternateBounds" />
          </mxGeometry>
        </mxCell>
        <mxCell id="bpEk5SvSNglR7MOFI6FV-97" value="rufunded" style="shape=partialRectangle;html=1;whiteSpace=wrap;connectable=0;strokeColor=inherit;overflow=hidden;fillColor=none;top=0;left=0;bottom=0;right=0;pointerEvents=1;" vertex="1" parent="bpEk5SvSNglR7MOFI6FV-94">
          <mxGeometry x="160" width="60" height="40" as="geometry">
            <mxRectangle width="60" height="40" as="alternateBounds" />
          </mxGeometry>
        </mxCell>
        <mxCell id="bpEk5SvSNglR7MOFI6FV-98" value="schedule_id" style="shape=partialRectangle;html=1;whiteSpace=wrap;connectable=0;strokeColor=inherit;overflow=hidden;fillColor=none;top=0;left=0;bottom=0;right=0;pointerEvents=1;" vertex="1" parent="bpEk5SvSNglR7MOFI6FV-94">
          <mxGeometry x="220" width="80" height="40" as="geometry">
            <mxRectangle width="80" height="40" as="alternateBounds" />
          </mxGeometry>
        </mxCell>
        <mxCell id="bpEk5SvSNglR7MOFI6FV-99" value="user_id" style="shape=partialRectangle;html=1;whiteSpace=wrap;connectable=0;strokeColor=inherit;overflow=hidden;fillColor=none;top=0;left=0;bottom=0;right=0;pointerEvents=1;" vertex="1" parent="bpEk5SvSNglR7MOFI6FV-94">
          <mxGeometry x="300" width="60" height="40" as="geometry">
            <mxRectangle width="60" height="40" as="alternateBounds" />
          </mxGeometry>
        </mxCell>
        <mxCell id="bpEk5SvSNglR7MOFI6FV-100" value="ticket" style="text;html=1;align=center;verticalAlign=middle;resizable=0;points=[];autosize=1;strokeColor=none;fillColor=none;" vertex="1" parent="1">
          <mxGeometry x="320" y="1400" width="50" height="30" as="geometry" />
        </mxCell>
        <mxCell id="bpEk5SvSNglR7MOFI6FV-101" value="" style="endArrow=classic;html=1;rounded=0;exitX=0.728;exitY=0.001;exitDx=0;exitDy=0;exitPerimeter=0;edgeStyle=orthogonalEdgeStyle;" edge="1" parent="1" source="bpEk5SvSNglR7MOFI6FV-94" target="bpEk5SvSNglR7MOFI6FV-82">
          <mxGeometry width="50" height="50" relative="1" as="geometry">
            <mxPoint x="590" y="1310" as="sourcePoint" />
            <mxPoint x="365" y="1321" as="targetPoint" />
            <Array as="points">
              <mxPoint x="582" y="1400" />
              <mxPoint x="350" y="1400" />
            </Array>
          </mxGeometry>
        </mxCell>
        <mxCell id="bpEk5SvSNglR7MOFI6FV-56" value="" style="shape=table;startSize=0;container=1;collapsible=0;childLayout=tableLayout;" vertex="1" parent="1">
          <mxGeometry x="320" y="840" width="280" height="40" as="geometry" />
        </mxCell>
        <mxCell id="bpEk5SvSNglR7MOFI6FV-57" value="" style="shape=tableRow;horizontal=0;startSize=0;swimlaneHead=0;swimlaneBody=0;strokeColor=inherit;top=0;left=0;bottom=0;right=0;collapsible=0;dropTarget=0;fillColor=none;points=[[0,0.5],[1,0.5]];portConstraint=eastwest;" vertex="1" parent="bpEk5SvSNglR7MOFI6FV-56">
          <mxGeometry width="280" height="40" as="geometry" />
        </mxCell>
        <mxCell id="bpEk5SvSNglR7MOFI6FV-58" value="&lt;u&gt;bus_id&lt;/u&gt;" style="shape=partialRectangle;html=1;whiteSpace=wrap;connectable=0;strokeColor=inherit;overflow=hidden;fillColor=none;top=0;left=0;bottom=0;right=0;pointerEvents=1;" vertex="1" parent="bpEk5SvSNglR7MOFI6FV-57">
          <mxGeometry width="60" height="40" as="geometry">
            <mxRectangle width="60" height="40" as="alternateBounds" />
          </mxGeometry>
        </mxCell>
        <mxCell id="bpEk5SvSNglR7MOFI6FV-59" value="bus_no" style="shape=partialRectangle;html=1;whiteSpace=wrap;connectable=0;strokeColor=inherit;overflow=hidden;fillColor=none;top=0;left=0;bottom=0;right=0;pointerEvents=1;" vertex="1" parent="bpEk5SvSNglR7MOFI6FV-57">
          <mxGeometry x="60" width="60" height="40" as="geometry">
            <mxRectangle width="60" height="40" as="alternateBounds" />
          </mxGeometry>
        </mxCell>
        <mxCell id="bpEk5SvSNglR7MOFI6FV-60" value="bus_type" style="shape=partialRectangle;html=1;whiteSpace=wrap;connectable=0;strokeColor=inherit;overflow=hidden;fillColor=none;top=0;left=0;bottom=0;right=0;pointerEvents=1;" vertex="1" parent="bpEk5SvSNglR7MOFI6FV-57">
          <mxGeometry x="120" width="60" height="40" as="geometry">
            <mxRectangle width="60" height="40" as="alternateBounds" />
          </mxGeometry>
        </mxCell>
        <mxCell id="bpEk5SvSNglR7MOFI6FV-61" value="bus_capacity" style="shape=partialRectangle;html=1;whiteSpace=wrap;connectable=0;strokeColor=inherit;overflow=hidden;fillColor=none;top=0;left=0;bottom=0;right=0;pointerEvents=1;" vertex="1" parent="bpEk5SvSNglR7MOFI6FV-57">
          <mxGeometry x="180" width="100" height="40" as="geometry">
            <mxRectangle width="100" height="40" as="alternateBounds" />
          </mxGeometry>
        </mxCell>
        <mxCell id="bpEk5SvSNglR7MOFI6FV-103" value="" style="endArrow=classic;html=1;rounded=0;edgeStyle=orthogonalEdgeStyle;exitX=0.923;exitY=-0.006;exitDx=0;exitDy=0;exitPerimeter=0;" edge="1" parent="1" source="bpEk5SvSNglR7MOFI6FV-94" target="bpEk5SvSNglR7MOFI6FV-11">
          <mxGeometry width="50" height="50" relative="1" as="geometry">
            <mxPoint x="590" y="1450" as="sourcePoint" />
            <mxPoint x="360" y="250" as="targetPoint" />
            <Array as="points">
              <mxPoint x="652" y="1380" />
              <mxPoint x="800" y="1380" />
              <mxPoint x="800" y="280" />
              <mxPoint x="340" y="280" />
            </Array>
          </mxGeometry>
        </mxCell>
        <mxCell id="bpEk5SvSNglR7MOFI6FV-104" value="" style="shape=table;startSize=0;container=1;collapsible=0;childLayout=tableLayout;" vertex="1" parent="1">
          <mxGeometry x="320" y="1600" width="320" height="40" as="geometry" />
        </mxCell>
        <mxCell id="bpEk5SvSNglR7MOFI6FV-105" value="" style="shape=tableRow;horizontal=0;startSize=0;swimlaneHead=0;swimlaneBody=0;strokeColor=inherit;top=0;left=0;bottom=0;right=0;collapsible=0;dropTarget=0;fillColor=none;points=[[0,0.5],[1,0.5]];portConstraint=eastwest;" vertex="1" parent="bpEk5SvSNglR7MOFI6FV-104">
          <mxGeometry width="320" height="40" as="geometry" />
        </mxCell>
        <mxCell id="bpEk5SvSNglR7MOFI6FV-106" value="ticket_address_id" style="shape=partialRectangle;html=1;whiteSpace=wrap;connectable=0;strokeColor=inherit;overflow=hidden;fillColor=none;top=0;left=0;bottom=0;right=0;pointerEvents=1;" vertex="1" parent="bpEk5SvSNglR7MOFI6FV-105">
          <mxGeometry width="120" height="40" as="geometry">
            <mxRectangle width="120" height="40" as="alternateBounds" />
          </mxGeometry>
        </mxCell>
        <mxCell id="bpEk5SvSNglR7MOFI6FV-107" value="source" style="shape=partialRectangle;html=1;whiteSpace=wrap;connectable=0;strokeColor=inherit;overflow=hidden;fillColor=none;top=0;left=0;bottom=0;right=0;pointerEvents=1;" vertex="1" parent="bpEk5SvSNglR7MOFI6FV-105">
          <mxGeometry x="120" width="60" height="40" as="geometry">
            <mxRectangle width="60" height="40" as="alternateBounds" />
          </mxGeometry>
        </mxCell>
        <mxCell id="bpEk5SvSNglR7MOFI6FV-108" value="destination" style="shape=partialRectangle;html=1;whiteSpace=wrap;connectable=0;strokeColor=inherit;overflow=hidden;fillColor=none;top=0;left=0;bottom=0;right=0;pointerEvents=1;" vertex="1" parent="bpEk5SvSNglR7MOFI6FV-105">
          <mxGeometry x="180" width="70" height="40" as="geometry">
            <mxRectangle width="70" height="40" as="alternateBounds" />
          </mxGeometry>
        </mxCell>
        <mxCell id="bpEk5SvSNglR7MOFI6FV-109" value="ticket_id" style="shape=partialRectangle;html=1;whiteSpace=wrap;connectable=0;strokeColor=inherit;overflow=hidden;fillColor=none;top=0;left=0;bottom=0;right=0;pointerEvents=1;" vertex="1" parent="bpEk5SvSNglR7MOFI6FV-105">
          <mxGeometry x="250" width="70" height="40" as="geometry">
            <mxRectangle width="70" height="40" as="alternateBounds" />
          </mxGeometry>
        </mxCell>
        <mxCell id="bpEk5SvSNglR7MOFI6FV-110" value="ticket_address" style="text;html=1;align=center;verticalAlign=middle;resizable=0;points=[];autosize=1;strokeColor=none;fillColor=none;" vertex="1" parent="1">
          <mxGeometry x="320" y="1560" width="100" height="30" as="geometry" />
        </mxCell>
        <mxCell id="bpEk5SvSNglR7MOFI6FV-111" value="" style="endArrow=classic;html=1;rounded=0;edgeStyle=orthogonalEdgeStyle;exitX=0.466;exitY=-0.02;exitDx=0;exitDy=0;exitPerimeter=0;entryX=0;entryY=0.5;entryDx=0;entryDy=0;" edge="1" parent="1" source="bpEk5SvSNglR7MOFI6FV-105">
          <mxGeometry width="50" height="50" relative="1" as="geometry">
            <mxPoint x="468.6" y="1560" as="sourcePoint" />
            <mxPoint x="321.4" y="981.64" as="targetPoint" />
            <Array as="points">
              <mxPoint x="469" y="1550" />
              <mxPoint x="271" y="1550" />
              <mxPoint x="271" y="982" />
            </Array>
          </mxGeometry>
        </mxCell>
        <mxCell id="bpEk5SvSNglR7MOFI6FV-112" value="" style="endArrow=classic;html=1;rounded=0;edgeStyle=orthogonalEdgeStyle;exitX=0.676;exitY=-0.061;exitDx=0;exitDy=0;exitPerimeter=0;entryX=-0.014;entryY=0.711;entryDx=0;entryDy=0;entryPerimeter=0;" edge="1" parent="1" source="bpEk5SvSNglR7MOFI6FV-105">
          <mxGeometry width="50" height="50" relative="1" as="geometry">
            <mxPoint x="535.6" y="1562.2199999999998" as="sourcePoint" />
            <mxPoint x="322.72000000000014" y="990.0600000000001" as="targetPoint" />
            <Array as="points">
              <mxPoint x="536" y="1540" />
              <mxPoint x="284" y="1540" />
              <mxPoint x="284" y="990" />
            </Array>
          </mxGeometry>
        </mxCell>
        <mxCell id="bpEk5SvSNglR7MOFI6FV-113" value="" style="endArrow=classic;html=1;rounded=0;edgeStyle=orthogonalEdgeStyle;exitX=0.876;exitY=-0.047;exitDx=0;exitDy=0;exitPerimeter=0;" edge="1" parent="1" source="bpEk5SvSNglR7MOFI6FV-105">
          <mxGeometry width="50" height="50" relative="1" as="geometry">
            <mxPoint x="600" y="1560" as="sourcePoint" />
            <mxPoint x="350" y="1480" as="targetPoint" />
            <Array as="points">
              <mxPoint x="600" y="1520" />
              <mxPoint x="350" y="1520" />
            </Array>
          </mxGeometry>
        </mxCell>
        <mxCell id="bpEk5SvSNglR7MOFI6FV-114" value="" style="shape=table;startSize=0;container=1;collapsible=0;childLayout=tableLayout;" vertex="1" parent="1">
          <mxGeometry x="320" y="1720" width="260" height="40" as="geometry" />
        </mxCell>
        <mxCell id="bpEk5SvSNglR7MOFI6FV-115" value="" style="shape=tableRow;horizontal=0;startSize=0;swimlaneHead=0;swimlaneBody=0;strokeColor=inherit;top=0;left=0;bottom=0;right=0;collapsible=0;dropTarget=0;fillColor=none;points=[[0,0.5],[1,0.5]];portConstraint=eastwest;" vertex="1" parent="bpEk5SvSNglR7MOFI6FV-114">
          <mxGeometry width="260" height="40" as="geometry" />
        </mxCell>
        <mxCell id="bpEk5SvSNglR7MOFI6FV-116" value="&lt;u&gt;seat_id&lt;/u&gt;" style="shape=partialRectangle;html=1;whiteSpace=wrap;connectable=0;strokeColor=inherit;overflow=hidden;fillColor=none;top=0;left=0;bottom=0;right=0;pointerEvents=1;" vertex="1" parent="bpEk5SvSNglR7MOFI6FV-115">
          <mxGeometry width="60" height="40" as="geometry">
            <mxRectangle width="60" height="40" as="alternateBounds" />
          </mxGeometry>
        </mxCell>
        <mxCell id="bpEk5SvSNglR7MOFI6FV-117" value="seat_no" style="shape=partialRectangle;html=1;whiteSpace=wrap;connectable=0;strokeColor=inherit;overflow=hidden;fillColor=none;top=0;left=0;bottom=0;right=0;pointerEvents=1;" vertex="1" parent="bpEk5SvSNglR7MOFI6FV-115">
          <mxGeometry x="60" width="60" height="40" as="geometry">
            <mxRectangle width="60" height="40" as="alternateBounds" />
          </mxGeometry>
        </mxCell>
        <mxCell id="bpEk5SvSNglR7MOFI6FV-118" value="schedule_id" style="shape=partialRectangle;html=1;whiteSpace=wrap;connectable=0;strokeColor=inherit;overflow=hidden;fillColor=none;top=0;left=0;bottom=0;right=0;pointerEvents=1;" vertex="1" parent="bpEk5SvSNglR7MOFI6FV-115">
          <mxGeometry x="120" width="80" height="40" as="geometry">
            <mxRectangle width="80" height="40" as="alternateBounds" />
          </mxGeometry>
        </mxCell>
        <mxCell id="bpEk5SvSNglR7MOFI6FV-119" value="ticket_id" style="shape=partialRectangle;html=1;whiteSpace=wrap;connectable=0;strokeColor=inherit;overflow=hidden;fillColor=none;top=0;left=0;bottom=0;right=0;pointerEvents=1;" vertex="1" parent="bpEk5SvSNglR7MOFI6FV-115">
          <mxGeometry x="200" width="60" height="40" as="geometry">
            <mxRectangle width="60" height="40" as="alternateBounds" />
          </mxGeometry>
        </mxCell>
        <mxCell id="bpEk5SvSNglR7MOFI6FV-120" value="seat" style="text;html=1;align=center;verticalAlign=middle;resizable=0;points=[];autosize=1;strokeColor=none;fillColor=none;" vertex="1" parent="1">
          <mxGeometry x="320" y="1680" width="50" height="30" as="geometry" />
        </mxCell>
        <mxCell id="bpEk5SvSNglR7MOFI6FV-126" value="" style="endArrow=classic;html=1;rounded=0;exitX=0.902;exitY=0.028;exitDx=0;exitDy=0;exitPerimeter=0;entryX=0.113;entryY=1.001;entryDx=0;entryDy=0;entryPerimeter=0;edgeStyle=orthogonalEdgeStyle;" edge="1" parent="1" source="bpEk5SvSNglR7MOFI6FV-115" target="bpEk5SvSNglR7MOFI6FV-94">
          <mxGeometry width="50" height="50" relative="1" as="geometry">
            <mxPoint x="590" y="1590" as="sourcePoint" />
            <mxPoint x="640" y="1540" as="targetPoint" />
            <Array as="points">
              <mxPoint x="554" y="1680" />
              <mxPoint x="660" y="1680" />
              <mxPoint x="660" y="1510" />
              <mxPoint x="361" y="1510" />
            </Array>
          </mxGeometry>
        </mxCell>
        <mxCell id="bpEk5SvSNglR7MOFI6FV-127" value="" style="endArrow=classic;html=1;rounded=0;exitX=0.63;exitY=-0.013;exitDx=0;exitDy=0;exitPerimeter=0;edgeStyle=orthogonalEdgeStyle;entryX=0;entryY=0.5;entryDx=0;entryDy=0;" edge="1" parent="1" source="bpEk5SvSNglR7MOFI6FV-115" target="bpEk5SvSNglR7MOFI6FV-82">
          <mxGeometry width="50" height="50" relative="1" as="geometry">
            <mxPoint x="590" y="1590" as="sourcePoint" />
            <mxPoint x="210" y="1600" as="targetPoint" />
            <Array as="points">
              <mxPoint x="484" y="1680" />
              <mxPoint x="260" y="1680" />
              <mxPoint x="260" y="1340" />
            </Array>
          </mxGeometry>
        </mxCell>
        <mxCell id="bpEk5SvSNglR7MOFI6FV-128" value="" style="shape=table;startSize=0;container=1;collapsible=0;childLayout=tableLayout;" vertex="1" parent="1">
          <mxGeometry x="320" y="1840" width="520" height="40" as="geometry" />
        </mxCell>
        <mxCell id="bpEk5SvSNglR7MOFI6FV-129" value="" style="shape=tableRow;horizontal=0;startSize=0;swimlaneHead=0;swimlaneBody=0;strokeColor=inherit;top=0;left=0;bottom=0;right=0;collapsible=0;dropTarget=0;fillColor=none;points=[[0,0.5],[1,0.5]];portConstraint=eastwest;" vertex="1" parent="bpEk5SvSNglR7MOFI6FV-128">
          <mxGeometry width="520" height="40" as="geometry" />
        </mxCell>
        <mxCell id="bpEk5SvSNglR7MOFI6FV-130" value="d_review_id" style="shape=partialRectangle;html=1;whiteSpace=wrap;connectable=0;strokeColor=inherit;overflow=hidden;fillColor=none;top=0;left=0;bottom=0;right=0;pointerEvents=1;" vertex="1" parent="bpEk5SvSNglR7MOFI6FV-129">
          <mxGeometry width="80" height="40" as="geometry">
            <mxRectangle width="80" height="40" as="alternateBounds" />
          </mxGeometry>
        </mxCell>
        <mxCell id="bpEk5SvSNglR7MOFI6FV-131" value="review_point" style="shape=partialRectangle;html=1;whiteSpace=wrap;connectable=0;strokeColor=inherit;overflow=hidden;fillColor=none;top=0;left=0;bottom=0;right=0;pointerEvents=1;" vertex="1" parent="bpEk5SvSNglR7MOFI6FV-129">
          <mxGeometry x="80" width="80" height="40" as="geometry">
            <mxRectangle width="80" height="40" as="alternateBounds" />
          </mxGeometry>
        </mxCell>
        <mxCell id="bpEk5SvSNglR7MOFI6FV-132" value="review_text" style="shape=partialRectangle;html=1;whiteSpace=wrap;connectable=0;strokeColor=inherit;overflow=hidden;fillColor=none;top=0;left=0;bottom=0;right=0;pointerEvents=1;" vertex="1" parent="bpEk5SvSNglR7MOFI6FV-129">
          <mxGeometry x="160" width="80" height="40" as="geometry">
            <mxRectangle width="80" height="40" as="alternateBounds" />
          </mxGeometry>
        </mxCell>
        <mxCell id="bpEk5SvSNglR7MOFI6FV-133" value="review_date" style="shape=partialRectangle;html=1;whiteSpace=wrap;connectable=0;strokeColor=inherit;overflow=hidden;fillColor=none;top=0;left=0;bottom=0;right=0;pointerEvents=1;" vertex="1" parent="bpEk5SvSNglR7MOFI6FV-129">
          <mxGeometry x="240" width="80" height="40" as="geometry">
            <mxRectangle width="80" height="40" as="alternateBounds" />
          </mxGeometry>
        </mxCell>
        <mxCell id="bpEk5SvSNglR7MOFI6FV-134" value="ticket_id" style="shape=partialRectangle;html=1;whiteSpace=wrap;connectable=0;strokeColor=inherit;overflow=hidden;fillColor=none;top=0;left=0;bottom=0;right=0;pointerEvents=1;" vertex="1" parent="bpEk5SvSNglR7MOFI6FV-129">
          <mxGeometry x="320" width="60" height="40" as="geometry">
            <mxRectangle width="60" height="40" as="alternateBounds" />
          </mxGeometry>
        </mxCell>
        <mxCell id="bpEk5SvSNglR7MOFI6FV-135" value="reviewer_id" style="shape=partialRectangle;html=1;whiteSpace=wrap;connectable=0;strokeColor=inherit;overflow=hidden;fillColor=none;top=0;left=0;bottom=0;right=0;pointerEvents=1;" vertex="1" parent="bpEk5SvSNglR7MOFI6FV-129">
          <mxGeometry x="380" width="80" height="40" as="geometry">
            <mxRectangle width="80" height="40" as="alternateBounds" />
          </mxGeometry>
        </mxCell>
        <mxCell id="bpEk5SvSNglR7MOFI6FV-136" value="driver_id" style="shape=partialRectangle;html=1;whiteSpace=wrap;connectable=0;strokeColor=inherit;overflow=hidden;fillColor=none;top=0;left=0;bottom=0;right=0;pointerEvents=1;" vertex="1" parent="bpEk5SvSNglR7MOFI6FV-129">
          <mxGeometry x="460" width="60" height="40" as="geometry">
            <mxRectangle width="60" height="40" as="alternateBounds" />
          </mxGeometry>
        </mxCell>
        <mxCell id="bpEk5SvSNglR7MOFI6FV-137" value="driver_review" style="text;html=1;align=center;verticalAlign=middle;resizable=0;points=[];autosize=1;strokeColor=none;fillColor=none;" vertex="1" parent="1">
          <mxGeometry x="320" y="1800" width="90" height="30" as="geometry" />
        </mxCell>
        <mxCell id="bpEk5SvSNglR7MOFI6FV-138" value="" style="shape=table;startSize=0;container=1;collapsible=0;childLayout=tableLayout;" vertex="1" parent="1">
          <mxGeometry x="320" y="1960" width="520" height="40" as="geometry" />
        </mxCell>
        <mxCell id="bpEk5SvSNglR7MOFI6FV-139" value="" style="shape=tableRow;horizontal=0;startSize=0;swimlaneHead=0;swimlaneBody=0;strokeColor=inherit;top=0;left=0;bottom=0;right=0;collapsible=0;dropTarget=0;fillColor=none;points=[[0,0.5],[1,0.5]];portConstraint=eastwest;" vertex="1" parent="bpEk5SvSNglR7MOFI6FV-138">
          <mxGeometry width="520" height="40" as="geometry" />
        </mxCell>
        <mxCell id="bpEk5SvSNglR7MOFI6FV-140" value="b_review_id" style="shape=partialRectangle;html=1;whiteSpace=wrap;connectable=0;strokeColor=inherit;overflow=hidden;fillColor=none;top=0;left=0;bottom=0;right=0;pointerEvents=1;" vertex="1" parent="bpEk5SvSNglR7MOFI6FV-139">
          <mxGeometry width="80" height="40" as="geometry">
            <mxRectangle width="80" height="40" as="alternateBounds" />
          </mxGeometry>
        </mxCell>
        <mxCell id="bpEk5SvSNglR7MOFI6FV-141" value="review_point" style="shape=partialRectangle;html=1;whiteSpace=wrap;connectable=0;strokeColor=inherit;overflow=hidden;fillColor=none;top=0;left=0;bottom=0;right=0;pointerEvents=1;" vertex="1" parent="bpEk5SvSNglR7MOFI6FV-139">
          <mxGeometry x="80" width="80" height="40" as="geometry">
            <mxRectangle width="80" height="40" as="alternateBounds" />
          </mxGeometry>
        </mxCell>
        <mxCell id="bpEk5SvSNglR7MOFI6FV-142" value="review_text" style="shape=partialRectangle;html=1;whiteSpace=wrap;connectable=0;strokeColor=inherit;overflow=hidden;fillColor=none;top=0;left=0;bottom=0;right=0;pointerEvents=1;" vertex="1" parent="bpEk5SvSNglR7MOFI6FV-139">
          <mxGeometry x="160" width="80" height="40" as="geometry">
            <mxRectangle width="80" height="40" as="alternateBounds" />
          </mxGeometry>
        </mxCell>
        <mxCell id="bpEk5SvSNglR7MOFI6FV-143" value="review_date" style="shape=partialRectangle;html=1;whiteSpace=wrap;connectable=0;strokeColor=inherit;overflow=hidden;fillColor=none;top=0;left=0;bottom=0;right=0;pointerEvents=1;" vertex="1" parent="bpEk5SvSNglR7MOFI6FV-139">
          <mxGeometry x="240" width="80" height="40" as="geometry">
            <mxRectangle width="80" height="40" as="alternateBounds" />
          </mxGeometry>
        </mxCell>
        <mxCell id="bpEk5SvSNglR7MOFI6FV-144" value="bus_id" style="shape=partialRectangle;html=1;whiteSpace=wrap;connectable=0;strokeColor=inherit;overflow=hidden;fillColor=none;top=0;left=0;bottom=0;right=0;pointerEvents=1;" vertex="1" parent="bpEk5SvSNglR7MOFI6FV-139">
          <mxGeometry x="320" width="60" height="40" as="geometry">
            <mxRectangle width="60" height="40" as="alternateBounds" />
          </mxGeometry>
        </mxCell>
        <mxCell id="bpEk5SvSNglR7MOFI6FV-145" value="ticket_id" style="shape=partialRectangle;html=1;whiteSpace=wrap;connectable=0;strokeColor=inherit;overflow=hidden;fillColor=none;top=0;left=0;bottom=0;right=0;pointerEvents=1;" vertex="1" parent="bpEk5SvSNglR7MOFI6FV-139">
          <mxGeometry x="380" width="60" height="40" as="geometry">
            <mxRectangle width="60" height="40" as="alternateBounds" />
          </mxGeometry>
        </mxCell>
        <mxCell id="bpEk5SvSNglR7MOFI6FV-146" value="reviewer_id" style="shape=partialRectangle;html=1;whiteSpace=wrap;connectable=0;strokeColor=inherit;overflow=hidden;fillColor=none;top=0;left=0;bottom=0;right=0;pointerEvents=1;" vertex="1" parent="bpEk5SvSNglR7MOFI6FV-139">
          <mxGeometry x="440" width="80" height="40" as="geometry">
            <mxRectangle width="80" height="40" as="alternateBounds" />
          </mxGeometry>
        </mxCell>
        <mxCell id="bpEk5SvSNglR7MOFI6FV-147" value="bus_review" style="text;html=1;align=center;verticalAlign=middle;resizable=0;points=[];autosize=1;strokeColor=none;fillColor=none;" vertex="1" parent="1">
          <mxGeometry x="325" y="1920" width="80" height="30" as="geometry" />
        </mxCell>
        <mxCell id="bpEk5SvSNglR7MOFI6FV-148" value="" style="endArrow=classic;html=1;rounded=0;exitX=0.675;exitY=0.008;exitDx=0;exitDy=0;exitPerimeter=0;edgeStyle=orthogonalEdgeStyle;entryX=0;entryY=0.5;entryDx=0;entryDy=0;" edge="1" parent="1" source="bpEk5SvSNglR7MOFI6FV-129" target="bpEk5SvSNglR7MOFI6FV-94">
          <mxGeometry width="50" height="50" relative="1" as="geometry">
            <mxPoint x="590" y="1730" as="sourcePoint" />
            <mxPoint x="240" y="1750" as="targetPoint" />
            <Array as="points">
              <mxPoint x="671" y="1800" />
              <mxPoint x="250" y="1800" />
              <mxPoint x="250" y="1460" />
            </Array>
          </mxGeometry>
        </mxCell>
        <mxCell id="bpEk5SvSNglR7MOFI6FV-149" value="" style="endArrow=classic;html=1;rounded=0;edgeStyle=orthogonalEdgeStyle;entryX=0;entryY=0.5;entryDx=0;entryDy=0;" edge="1" parent="1" source="bpEk5SvSNglR7MOFI6FV-139" target="bpEk5SvSNglR7MOFI6FV-57">
          <mxGeometry width="50" height="50" relative="1" as="geometry">
            <mxPoint x="670" y="1940" as="sourcePoint" />
            <mxPoint x="220" y="1010" as="targetPoint" />
            <Array as="points">
              <mxPoint x="670" y="1920" />
              <mxPoint x="230" y="1920" />
              <mxPoint x="230" y="860" />
            </Array>
          </mxGeometry>
        </mxCell>
        <mxCell id="bpEk5SvSNglR7MOFI6FV-150" value="" style="endArrow=classic;html=1;rounded=0;exitX=0.796;exitY=-0.013;exitDx=0;exitDy=0;exitPerimeter=0;edgeStyle=orthogonalEdgeStyle;entryX=0.005;entryY=0.753;entryDx=0;entryDy=0;entryPerimeter=0;" edge="1" parent="1" source="bpEk5SvSNglR7MOFI6FV-139" target="bpEk5SvSNglR7MOFI6FV-94">
          <mxGeometry width="50" height="50" relative="1" as="geometry">
            <mxPoint x="510" y="2000" as="sourcePoint" />
            <mxPoint x="310" y="1470" as="targetPoint" />
            <Array as="points">
              <mxPoint x="734" y="1910" />
              <mxPoint x="240" y="1910" />
              <mxPoint x="240" y="1470" />
            </Array>
          </mxGeometry>
        </mxCell>
        <mxCell id="bpEk5SvSNglR7MOFI6FV-151" value="" style="endArrow=classic;html=1;rounded=0;edgeStyle=orthogonalEdgeStyle;exitX=0.814;exitY=-0.02;exitDx=0;exitDy=0;exitPerimeter=0;entryX=0.122;entryY=0.994;entryDx=0;entryDy=0;entryPerimeter=0;" edge="1" parent="1" source="bpEk5SvSNglR7MOFI6FV-129" target="bpEk5SvSNglR7MOFI6FV-11">
          <mxGeometry width="50" height="50" relative="1" as="geometry">
            <mxPoint x="510" y="1800" as="sourcePoint" />
            <mxPoint x="820" y="350" as="targetPoint" />
            <Array as="points">
              <mxPoint x="743" y="1780" />
              <mxPoint x="810" y="1780" />
              <mxPoint x="810" y="270" />
              <mxPoint x="349" y="270" />
            </Array>
          </mxGeometry>
        </mxCell>
        <mxCell id="bpEk5SvSNglR7MOFI6FV-152" value="" style="endArrow=classic;html=1;rounded=0;edgeStyle=orthogonalEdgeStyle;" edge="1" parent="1" source="bpEk5SvSNglR7MOFI6FV-129" target="bpEk5SvSNglR7MOFI6FV-11">
          <mxGeometry width="50" height="50" relative="1" as="geometry">
            <mxPoint x="810" y="1840" as="sourcePoint" />
            <mxPoint x="840" y="360" as="targetPoint" />
            <Array as="points">
              <mxPoint x="810" y="1800" />
              <mxPoint x="820" y="1800" />
              <mxPoint x="820" y="260" />
              <mxPoint x="357" y="260" />
            </Array>
          </mxGeometry>
        </mxCell>
        <mxCell id="bpEk5SvSNglR7MOFI6FV-153" value="" style="endArrow=classic;html=1;rounded=0;exitX=0.939;exitY=0.015;exitDx=0;exitDy=0;exitPerimeter=0;edgeStyle=orthogonalEdgeStyle;entryX=0.193;entryY=1.008;entryDx=0;entryDy=0;entryPerimeter=0;" edge="1" parent="1" source="bpEk5SvSNglR7MOFI6FV-139" target="bpEk5SvSNglR7MOFI6FV-11">
          <mxGeometry width="50" height="50" relative="1" as="geometry">
            <mxPoint x="510" y="1870" as="sourcePoint" />
            <mxPoint x="860" y="360" as="targetPoint" />
            <Array as="points">
              <mxPoint x="808" y="1920" />
              <mxPoint x="850" y="1920" />
              <mxPoint x="850" y="250" />
              <mxPoint x="366" y="250" />
            </Array>
          </mxGeometry>
        </mxCell>
      </root>
    </mxGraphModel>
  </diagram>
</mxfile>
